<svg xmlns="http://www.w3.org/2000/svg"
     xmlns:xlink="http://www.w3.org/1999/xlink"
     width="450" height="900" viewBox="0 0 450 900"
	 class="a3-crianca-svg">

  <g transform="translate(10.094715, 27.810535)">
  <g
     id="maos"
     style="display:inline"
     transform="translate(-110.86157,-95.162232)">
    <path
       d="m 136.6055,685.2462 a 29.831407,29.831407 0 0 0 -13.51626,0.79553 16.398626,16.398626 0 0 0 -10.17068,8.52365 19.454725,19.454725 0 0 0 -0.69241,13.36147 35.958533,35.958533 0 0 0 6.17477,12.09193 50.958459,50.958459 0 0 0 9.65153,9.60861 63.17037,63.17037 0 0 0 11.76917,6.86314 44.480869,44.480869 0 0 0 13.16817,3.4242 26.920655,26.920655 0 0 0 13.38182,-1.87271 15.629009,15.629009 0 0 0 8.87772,-9.8131 21.596079,21.596079 0 0 0 -0.78167,-13.40849 34.744144,34.744144 0 0 0 -2.93555,-6.15474 z"
       id="mao-dir"
       class="pele-cor" />
    <path
       d="m 501.6673,685.2462 a 29.831407,29.831407 0 0 1 13.51625,0.79553 16.398626,16.398626 0 0 1 10.17068,8.52365 19.454725,19.454725 0 0 1 0.69241,13.36147 35.958533,35.958533 0 0 1 -6.17477,12.09193 50.958459,50.958459 0 0 1 -9.65153,9.60861 63.17037,63.17037 0 0 1 -11.76917,6.86314 44.480869,44.480869 0 0 1 -13.16816,3.4242 26.920655,26.920655 0 0 1 -13.38183,-1.87271 15.629009,15.629009 0 0 1 -8.87772,-9.8131 21.596079,21.596079 0 0 1 0.78167,-13.40849 34.744144,34.744144 0 0 1 2.93556,-6.15474 z"
       id="mao-esq"
       class="pele-cor" />
  </g>
  <g
     id="pes"
     style="display:inline"
     transform="translate(-110.86157,-95.162232)"
     class="pes">
    <path
       d="m 231.8025,901.85871 a 17.67267,17.67267 0 0 0 -12.59318,20.90946 29.886239,29.886239 0 0 0 21.47952,14.75283 59.791612,59.791612 0 0 0 26.79353,0 29.886239,29.886239 0 0 0 21.47951,-14.75283 17.67267,17.67267 0 0 0 -12.59318,-20.90946 z"
       id="pe-dir"
       class="cor-roupa-1" />
    <path
       d="m 361.90409,901.85871 a 17.67267,17.67267 0 0 0 -12.59318,20.90946 29.886239,29.886239 0 0 0 21.47952,14.75283 59.791612,59.791612 0 0 0 26.79353,0 29.886239,29.886239 0 0 0 21.47951,-14.75283 17.67267,17.67267 0 0 0 -12.59318,-20.90946 z"
       id="pe-esq"
       class="cor-roupa-1" />
  </g>
  <g
     id="calca"
     style="display:inline"
     transform="translate(-110.86157,-95.162232)"
     class="calca">
    <path
       d="M 427.02191,901.85871 412.03473,738.90914 H 226.23807 l -14.98719,162.94957 h 85.66944 l 9.56209,-130.30966 a 106.18272,106.18272 0 0 0 25.30797,0 l 9.56209,130.30966 z"
       id="calca-main"
       class="cor-roupa-2" />
    <path
       d="m 294.47097,769.40123 a 106.18272,106.18272 0 0 0 49.33085,0"
       id="calca-det"
       class="roupa-det" />
  </g>
  <g
     id="blusa"
     style="display:inline"
     transform="translate(-110.86157,-95.162232)"
     class="blusa">
    <path
       d="m 184.11437,717.10252 28.83931,-50.97949 v 72.78611 h 212.36544 v -72.78611 l 28.83931,50.97949 60.09113,-40.29316 -84.312,-146.03267 a 127.94216,127.94216 0 0 0 -80.46758,-60.3232 l -61.34584,0.16759 a 127.94216,127.94216 0 0 0 -79.7889,60.15561 l -84.312,146.03267 z"
       id="blusa-main"
       class="cor-roupa-1" />
	      <path
       d="m 224.94618,584.40105 a 1221.6587,1221.6587 0 0 0 -11.88439,80.76326"
       id="blusa-det2"
       class="roupa-det" />
    <path
       d="M 425.21101,665.16431 A 1221.6587,1221.6587 0 0 0 413.32662,584.40105"
       id="blusa-det1"
       class="roupa-det" />
  </g>
  <g
     id="cabeca"
     style="display:inline"
     transform="translate(-110.86157,-95.162232)"
     class="cabeca">
    <path
       d="m 283.33793,203.47874 71.20597,-0.19453 a 128.62169,128.62169 0 0 1 128.71942,128.62165 v 9.91158 A 128.62169,128.62169 0 0 1 354.73938,470.43909 l -71.20597,0.19453 A 128.62169,128.62169 0 0 1 154.81399,342.01197 v -9.91158 A 128.62169,128.62169 0 0 1 283.33793,203.47874 Z"
       id="cabeca-main"
       class="pele-cor" />
  </g>
  <g
     id="hair-crespo"
     style="display:inline"
     transform="translate(-110.86157,-95.162232)"
     class="hair-crespo">
    <path
       d="m 463.25387,410.71534 a 11.530051,11.530051 0 0 0 11.47017,-15.00857 11.530051,11.530051 0 0 0 9.91095,-16.08089 11.530051,11.530051 0 0 0 8.25224,-16.99183 11.530051,11.530051 0 0 0 6.51073,-17.73224 11.530051,11.530051 0 0 0 4.70387,-18.29468 11.530051,11.530051 0 0 0 2.8498,-18.67353 11.530051,11.530051 0 0 0 0.96714,-18.86495 11.530051,11.530051 0 0 0 -0.92524,-18.86706 11.530051,11.530051 0 0 0 -2.80833,-18.67981 11.530051,11.530051 0 0 0 -4.66323,-18.30508 11.530051,11.530051 0 0 0 -6.47134,-17.74666 11.530051,11.530051 0 0 0 -8.21449,-17.01011 11.530051,11.530051 0 0 0 -9.87521,-16.10287 11.530051,11.530051 0 0 0 -11.43681,-15.034 11.530051,11.530051 0 0 0 -12.88364,-13.81425 11.530051,11.530051 0 0 0 -14.20117,-12.45587 11.530051,11.530051 0 0 0 -15.37617,-10.97248 11.530051,11.530051 0 0 0 -16.39685,-9.37897 11.530051,11.530051 0 0 0 -17.25299,-7.69132 11.530051,11.530051 0 0 0 -17.93595,-5.9265 11.530051,11.530051 0 0 0 -18.43893,-4.10218 11.530051,11.530051 0 0 0 -18.75684,-2.23671 11.530051,11.530051 0 0 0 -18.88651,-0.34878 11.530051,11.530051 0 0 0 -18.82663,1.54265 11.530051,11.530051 0 0 0 -18.57781,3.4186 11.530051,11.530051 0 0 0 -18.14255,5.26023 11.530051,11.530051 0 0 0 -17.52519,7.04908 11.530051,11.530051 0 0 0 -16.73196,8.76718 11.530051,11.530051 0 0 0 -15.77081,10.39728 11.530051,11.530051 0 0 0 -14.65137,11.92305 11.530051,11.530051 0 0 0 -13.3849,13.32916 11.530051,11.530051 0 0 0 -11.98409,14.60149 11.530051,11.530051 0 0 0 -10.46301,15.72727 11.530051,11.530051 0 0 0 -8.83693,16.69523 11.530051,11.530051 0 0 0 -7.12216,17.49562 11.530051,11.530051 0 0 0 -5.3359,18.12043 11.530051,11.530051 0 0 0 -3.4961,18.56339 11.530051,11.530051 0 0 0 -1.6212,18.82003 11.530051,11.530051 0 0 0 0.26995,18.8878 11.530051,11.530051 0 0 0 2.15841,18.76601 11.530051,11.530051 0 0 0 4.02519,18.45588 11.530051,11.530051 0 0 0 5.85159,17.96054 11.530051,11.530051 0 0 0 7.61926,17.28493 11.530051,11.530051 0 0 0 9.31045,16.43585 12.970786,12.970786 0 0 0 12.37975,17.27161 131.21758,131.21758 0 0 1 10.79734,-124.91696 11.524912,11.524912 0 0 0 11.5218,-14.95834 11.524912,11.524912 0 0 0 13.54934,-13.14988 11.524912,11.524912 0 0 0 15.29635,-11.06913 11.524912,11.524912 0 0 0 16.72663,-8.75921 11.524912,11.524912 0 0 0 17.81059,-6.26791 11.524912,11.524912 0 0 0 18.52577,-3.64685 11.522754,11.522754 0 0 0 18.86565,-0.67669 11.534878,11.534878 0 0 0 18.89756,-0.0516 11.534878,11.534878 0 0 0 18.89757,-0.0516 11.534878,11.534878 0 0 0 18.89757,-0.0516 11.516865,11.516865 0 0 0 18.73944,2.19994 11.524833,11.524833 0 0 0 18.20221,5.01782 11.524833,11.524833 0 0 0 17.28931,7.58807 11.524833,11.524833 0 0 0 16.0156,9.99998 11.524833,11.524833 0 0 0 14.40767,12.2032 17.031195,17.031195 0 0 0 17.7353,21.54056 130.70228,130.70228 0 0 1 8.53911,128.59632 z"
       id="hair-crespo-main"
       class="cor-cabelo" />
  </g>
  <g
     id="hair-cacho"
     style="display:inline"
     transform="translate(-110.86157,-95.162232)">
    <path
       d="m 174.70028,410.71534 a 23.241396,23.241396 0 0 0 -9.30467,-36.92209 23.16143,23.16143 0 0 0 1.60113,-37.91167 23.156896,23.156896 0 0 0 11.83485,-36.04485 23.151701,23.151701 0 0 0 22.10941,-30.8192 23.13466,23.13466 0 0 0 29.94746,-23.23104 23.141285,23.141285 0 0 0 35.36044,-13.67459 23.193835,23.193835 0 0 0 37.83065,-3.56821 23.343681,23.343681 0 0 0 38.24301,-0.28112 23.268262,23.268262 0 0 0 37.56879,6.46205 22.815983,22.815983 0 0 0 32.89651,17.74959 23.344475,23.344475 0 0 0 30.37542,23.23877 23.120325,23.120325 0 0 0 20.31812,31.96758 23.229406,23.229406 0 0 0 9.82428,36.76691 23.196649,23.196649 0 0 0 -2.32778,37.93181 13.139374,13.139374 0 0 0 -2.16512,21.41713 23.322647,23.322647 0 0 0 23.16506,-30.38672 23.285171,23.285171 0 0 0 19.28057,-32.91723 23.275844,23.275844 0 0 0 13.1589,-35.79053 23.275557,23.275557 0 0 0 6.62759,-37.55207 23.233204,23.233204 0 0 0 -1.56368,-38.03092 23.070716,23.070716 0 0 0 -15.67995,-34.391 22.896082,22.896082 0 0 0 -32.79022,-18.21697 23.319341,23.319341 0 0 0 -37.83034,-5.33144 23.260011,23.260011 0 0 0 -37.78157,-4.9693 23.343823,23.343823 0 0 0 -37.30905,-8.40595 23.342272,23.342272 0 0 0 -37.52736,-7.35716 23.338042,23.338042 0 0 0 -37.84484,-5.44691 23.320169,23.320169 0 0 0 -38.16245,-1.81381 23.296434,23.296434 0 0 0 -37.84212,4.96655 23.120085,23.120085 0 0 0 -34.30032,16.06891 23.176273,23.176273 0 0 0 -26.52603,27.16752 23.262909,23.262909 0 0 0 -17.69659,33.75402 23.275647,23.275647 0 0 0 -10.56993,36.63838 23.247307,23.247307 0 0 0 -2.96313,37.97072 23.181801,23.181801 0 0 0 6.16713,37.47477 23.172203,23.172203 0 0 0 15.89205,34.47668 29.304829,29.304829 0 0 0 27.98378,39.01139 z"
       id="hair-cacho-main"
       class="cor-cabelo" />
  </g>
  <g
     id="hair-liso"
     style="display:inline"
     transform="translate(-110.86157,-95.162232)"
     class="hair-liso">
    <path
       d="M 465.42326,407.1701 A 136.94524,136.94524 0 0 0 354.50907,183.72964 l -71.20596,0.19453 A 136.90678,136.90678 0 0 0 172.53952,407.1701 128.63841,128.63841 0 0 1 154.81399,342.01197 v -9.91158 a 128.62169,128.62169 0 0 1 20.27177,-69.3097 h 192.65646 l 12.30258,-56.97297 10.62729,56.97297 h 72.44365 a 128.62169,128.62169 0 0 1 20.14758,69.11517 v 9.91158 a 128.62169,128.62169 0 0 1 -17.84006,65.35266 z"
       id="hair-liso-main"
       class="cor-cabelo" />
  </g>
  <g
     id="hair-onda"
     style="display:inline"
     transform="translate(-110.86157,-95.162232)"
     class="hair-onda">
    <path
       d="m 301.2984,169.6405 6.6134,-2.68906 5.8234,-2.40011 5.1373,-2.136 4.5551,-1.89677 4.0768,-1.68237 3.7023,-1.49285 3.4318,-1.32816 3.2651,-1.18835 3.1878,-1.06942 3.1419,-0.95552 3.1128,-0.8427 3.1007,-0.73096 3.1054,-0.62028 3.127,-0.51067 3.1654,-0.40214 3.2206,-0.29467 3.2968,-0.18478 3.409,-0.0584 3.5613,0.088 3.7539,0.25436 3.9864,0.44073 4.259,0.64709 4.5718,0.87346 4.9247,1.11981 5.2922,1.37628 5.5732,1.60337 5.7422,1.79121 5.7992,1.93979 5.7442,2.04912 5.5772,2.11918 5.2983,2.14999 4.9073,2.14154 4.4317,2.10175 3.9812,2.06221 3.5831,2.03085 3.2372,2.00764 2.9439,1.99262 2.7028,1.98575 2.5143,1.98705 2.3779,1.99652 2.2858,2.01232 2.2039,2.02711 2.1241,2.03905 2.0462,2.04813 1.9704,2.05438 1.8967,2.05775 1.8248,2.0583 1.755,2.05598 1.6868,2.05031 1.6183,2.03927 1.5493,2.02233 1.4794,1.99951 1.4089,1.97081 1.3377,1.93623 1.2659,1.89575 1.1934,1.84938 1.1221,1.8017 1.0595,1.7705 1.0075,1.7606 0.966,1.7718 0.9352,1.8041 0.9149,1.8576 0.9053,1.9322 0.9061,2.0279 0.9132,2.1401 0.9084,2.2492 0.8874,2.3508 0.8503,2.4446 0.7968,2.5308 0.7271,2.6094 0.6412,2.6802 0.5391,2.7433 0.4236,2.8058 0.3059,2.8954 0.189,3.0192 0.073,3.177 -0.042,3.3691 -0.1569,3.5952 -0.2708,3.8555 -0.3839,4.1499 -0.4912,4.4593 -0.5727,4.7068 -0.6237,4.8735 -0.6438,4.9592 -0.6333,4.9639 -0.592,4.8876 -0.5201,4.7305 -0.4173,4.4922 -0.2905,4.1914 -0.1662,3.9006 -0.051,3.6382 0.055,3.4041 0.1528,3.1985 0.2411,3.0211 0.3204,2.8722 0.3905,2.7516 0.4516,2.6531 0.5026,2.552 0.5433,2.4423 0.5739,2.3235 0.5943,2.1962 0.6044,2.0599 0.6045,1.9149 0.5941,1.761 0.5763,1.6015 0.5606,1.4481 0.5498,1.3041 0.5439,1.1693 0.5427,1.0439 0.5465,0.9278 0.5551,0.821 0.5684,0.7234 0.5851,0.635 0.5991,0.5546 0.609,0.4824 0.6145,0.418 0.616,0.3616 0.6132,0.3131 0.6061,0.2727 0.595,0.2401 0.5804,0.214 0.566,0.1877 0.5527,0.16 0.5402,0.1305 0.5288,0.099 0.5185,0.067 0.5091,0.032
h 0.5007
l 0.4939,-0.042 0.4906,-0.083 0.4914,-0.1277 0.4964,-0.1761 0.5053,-0.2283 0.5185,-0.284 0.5356,-0.3433 0.557,-0.4064 0.5806,-0.4705 0.5989,-0.5257 0.6104,-0.5696 0.6149,-0.602 0.6124,-0.6231 0.603,-0.6328 0.5866,-0.631 0.5631,-0.618 0.5358,-0.5963 0.5167,-0.5779 0.5088,-0.5653 0.5122,-0.5587 0.5267,-0.5582 0.5526,-0.5636 0.5897,-0.5749 0.6379,-0.5923 0.6913,-0.6095 0.7254,-0.6013 0.734,-0.5617 0.7169,-0.4907 0.6745,-0.3883 0.6066,-0.2543 0.513,-0.089 0.3942,0.1079 0.2564,0.3276 0.1268,0.5359 0.012,0.7241 -0.088,0.8925 -0.1724,1.0408 -0.2422,1.1691 -0.2973,1.2774 -0.3375,1.3658 -0.366,1.4336 -0.3969,1.4786 -0.4334,1.5003 -0.4757,1.4987 -0.5234,1.4737 -0.577,1.4255 -0.6361,1.3539 -0.701,1.259 -0.7668,1.1456 -0.8156,1.033 -0.8426,0.9262 -0.8478,0.825 -0.8312,0.7296 -0.793,0.6398 -0.7329,0.5558 -0.6511,0.4773 -0.5571,0.405 -0.4896,0.3398 -0.4581,0.2821 -0.4626,0.232 -0.5031,0.1894 -0.5796,0.1543 -0.6922,0.1267 -0.8408,0.1066 -1.0148,0.092 -1.172,0.074 -1.3018,0.051 -1.4042,0.022 -1.4793,-0.013 -1.5269,-0.052 -1.5472,-0.098 -1.5401,-0.1482 -1.5133,-0.2062 -1.498,-0.2788 -1.5021,-0.3679 -1.5256,-0.4736 -1.5682,-0.5958 -1.6302,-0.7346 -1.7115,-0.8898 -1.8121,-1.0617 -1.9225,-1.2427 -2.0048,-1.4035 -2.0496,-1.5369 -2.0566,-1.6426 -2.0261,-1.7208 -1.9581,-1.7715 -1.8523,-1.7947 -1.7091,-1.7903 -1.5367,-1.7668 -1.37,-1.7573 -1.2174,-1.7703 -1.0788,-1.8059 -0.9545,-1.8637 -0.8442,-1.9442 -0.7481,-2.0469 -0.666,-2.1723 -0.5963,-2.3128 -0.5311,-2.4394 -0.4686,-2.5448 -0.4088,-2.629 -0.3516,-2.6921 -0.2971,-2.734 -0.2454,-2.7547 -0.1962,-2.7543 -0.1515,-2.7354 -0.1176,-2.7099 -0.096,-2.6802 -0.087,-2.6467 -0.091,-2.6091 -0.1067,-2.5676 -0.1352,-2.522 -0.1761,-2.4726 -0.2282,-2.4197 -0.2858,-2.3662 -0.3474,-2.3126 -0.4132,-2.2591 -0.483,-2.2055 -0.557,-2.1518 -0.6349,-2.0981 -0.7171,-2.0444 -0.8036,-1.9911 -0.8959,-1.9392 -0.994,-1.8895 -1.0981,-1.8418 -1.2084,-1.7959 -1.3246,-1.7521 -1.4467,-1.7103 -1.5748,-1.6705 -1.7042,-1.63 -1.8156,-1.5781 -1.9043,-1.5123 -1.9701,-1.4325 -2.0133,-1.3387 -2.0336,-1.231 -2.0313,-1.1092 -2.0061,-0.9734 -1.9622,-0.828 -1.915,-0.6899 -1.8686,-0.5635 -1.8228,-0.4488 -1.7779,-0.3458 -1.7336,-0.2544 -1.6901,-0.1747 -1.6473,-0.1066 -1.6078,-0.05 -1.582,2e-4 -1.5727,0.043 -1.5796,0.08 -1.6029,0.1092 -1.6425,0.1322 -1.6985,0.1484 -1.7709,0.1581 -1.8557,0.1604 -1.9378,0.1536 -2.0132,0.137 -2.0822,0.1105 -2.1445,0.074 -2.2002,0.028 -2.2494,-0.028 -2.2918,-0.093 -2.3261,-0.1662 -2.3452,-0.2357 -2.3473,-0.2991 -2.3327,-0.3566 -2.301,-0.4079 -2.2526,-0.4534 -2.1873,-0.4927 -2.105,-0.5261 -2.0111,-0.5551 -1.9268,-0.5857 -1.857,-0.62 -1.802,-0.6575 -1.7618,-0.6985 -1.7362,-0.7429 -1.7253,-0.7906 -1.7292,-0.8419 -1.7439,-0.8957 -1.754,-0.9485 -1.7557,-0.9998 -1.7491,-1.0493 -1.734,-1.097 -1.7104,-1.1432 -1.6786,-1.1876 -1.6382,-1.2303 -1.5898,-1.2689 -1.5341,-1.2934 -1.4715,-1.3016 -1.4021,-1.2933 -1.3256,-1.2687 -1.2423,-1.2275 -1.1521,-1.1701 -1.0549,-1.096 -0.9548,-1.0072 -0.8681,-0.9091 -0.7986,-0.8035 -0.7464,-0.6902 -0.7116,-0.5693 -0.694,-0.4407 -0.6938,-0.3044 -0.7109,-0.1606 -0.7423,-0.013 -0.777,0.12 -0.8117,0.2353 -0.8468,0.3323 -0.8821,0.4113 -0.9175,0.4721 -0.9533,0.5147 -0.9892,0.5393 -1.0286,0.5487 -1.0845,0.5557 -1.1604,0.5635 -1.2559,0.5718 -1.3714,0.5808 -1.5065,0.5905 -1.6617,0.6009 -1.8365,0.6119 -2.0244,0.6219 -2.1983,0.6234 -2.3516,0.6151 -2.4841,0.5964 -2.5958,0.5679 -2.6869,0.5293 -2.7572,0.4804 -2.8067,0.4217 -2.8373,0.3561 -2.8551,0.2972 -2.8619,0.2484 -2.8578,0.2096 -2.8426,0.1808 -2.8163,0.1621 -2.7792,0.1534 -2.731,0.1547 -2.6762,0.1661 -2.6333,0.1878 -2.6066,0.22 -2.5962,0.2623 -2.602,0.3151 -2.6241,0.3783 -2.6625,0.4518 -2.7171,0.5357 -2.7814,0.627 -2.8288,0.7149 -2.8528,0.7961 -2.8533,0.8708 -2.8303,0.9392 -2.7838,1.0009 -2.7139,1.0563 -2.6205,1.1051 -2.5094,1.1496 -2.4042,1.1981 -2.3104,1.2528 -2.2283,1.3138 -2.1576,1.381 -2.0987,1.4542 -2.0512,1.5338 -2.0153,1.6195 -1.9875,1.7095 -1.9532,1.7964 -1.9093,1.8781 -1.8553,1.9548 -1.7915,2.0264 -1.7178,2.093 -1.6344,2.1544 -1.5409,2.2108 -1.4408,2.2677 -1.3465,2.3471 -1.2611,2.4547 -1.1846,2.5905 -1.1171,2.7544 -1.0585,2.9464 -1.0089,3.1667 -0.9682,3.4151 -0.936,3.6756 -0.9102,3.8849 -0.8903,4.0266 -0.8764,4.101 -0.8684,4.1081 -0.8665,4.0477 -0.8704,3.9201 -0.8804,3.7251 -0.8972,3.478 -0.9253,3.2403 -0.9656,3.0276 -1.0182,2.8394 -1.083,2.6761 -1.16,2.5376 -1.2492,2.4239 -1.3508,2.3348 -1.4584,2.265 -1.5488,2.1909 -1.6158,2.1072 -1.6592,2.0136 -1.6794,1.9103 -1.6762,1.7972 -1.6495,1.6744 -1.5995,1.5416 -1.5302,1.4027 -1.459,1.2716 -1.3897,1.1519 -1.3227,1.0435 -1.2576,0.9464 -1.1946,0.8608 -1.1339,0.7864 -1.0751,0.7235 -1.0173,0.671 -0.9549,0.6255 -0.8868,0.586 -0.8132,0.5526 -0.7337,0.5254 -0.6485,0.5041 -0.5577,0.489 -0.4611,0.4799 -0.3615,0.4761 -0.2693,0.4744 -0.1872,0.4739 -0.1153,0.4748 -0.053,0.4769
v 0.4802
l 0.04,0.4848 0.072,0.4908 0.095,0.4974 0.1178,0.5024 0.1419,0.5055 0.1676,0.5064 0.1946,0.5052 0.223,0.502 0.2527,0.4967 0.284,0.4892 0.3179,0.4803 0.3604,0.4719 0.4126,0.4647 0.4748,0.4586 0.5467,0.4537 0.6284,0.4499 0.7201,0.4473 0.8216,0.4458 0.9295,0.4445 1.0297,0.4397 1.119,0.4302 1.1974,0.4162 1.2646,0.3978 1.3208,0.3746 1.3661,0.3471 1.4004,0.315 1.4247,0.2798 1.4438,0.2474 1.4588,0.2194 1.4697,0.1956 1.4765,0.1761 1.479,0.161 1.4776,0.1502 1.472,0.1436 1.4569,0.1409 1.4101,0.1399 1.3267,0.1402 1.2062,0.1417 1.0488,0.1445 0.8545,0.1485 0.6234,0.1538 0.3553,0.1604 0.061,0.1672 -0.2185,0.1716 -0.4719,0.1721 -0.6995,0.1692 -0.9012,0.1628 -1.0772,0.1527 -1.2273,0.1391 -1.3517,0.1219 -1.4513,0.1017 -1.531,0.08 -1.5918,0.058 -1.634,0.035 -1.6571,0.012 -1.6616,-0.012 -1.6472,-0.037 -1.614,-0.062 -1.565,-0.088 -1.5129,-0.1135 -1.4605,-0.1377 -1.4081,-0.161 -1.3554,-0.1835 -1.3027,-0.2049 -1.2498,-0.2255 -1.1968,-0.2451 -1.1446,-0.2643 -1.0974,-0.2858 -1.0561,-0.3097 -1.0207,-0.3364 -0.9914,-0.3658 -0.968,-0.3977 -0.9506,-0.4325 -0.939,-0.4697 -0.932,-0.5095 -0.9233,-0.55 -0.9117,-0.5913 -0.8968,-0.6332 -0.8791,-0.6756 -0.858,-0.7186 -0.8341,-0.7624 -0.8071,-0.8067 -0.777,-0.8511 -0.7444,-0.8944 -0.7093,-0.9357 -0.6719,-0.9753 -0.632,-1.0132 -0.5897,-1.0493 -0.5449,-1.0836 -0.4976,-1.1161 -0.4486,-1.1455 -0.3998,-1.1663 -0.3521,-1.1768 -0.3054,-1.1774 -0.2597,-1.1679 -0.2148,-1.1482 -0.171,-1.1185 -0.1282,-1.0787 -0.086,-1.0322 -0.044,-0.9924
v -0.9627
l 0.04,-0.9431 0.083,-0.9335 0.1255,-0.934 0.1682,-0.9446 0.2112,-0.9653 0.2551,-0.9936 0.3033,-1.0202 0.3566,-1.0425 0.4151,-1.0604 0.4788,-1.0743 0.5475,-1.0838 0.6214,-1.0892 0.7004,-1.0902 0.7807,-1.0862 0.8465,-1.0736 0.8939,-1.0518 0.923,-1.0204 0.9338,-0.9797 0.9261,-0.9296 0.9002,-0.8702 0.8559,-0.8014 0.7947,-0.725 0.7228,-0.6492 0.6418,-0.5756 0.5515,-0.5045 0.4521,-0.4356 0.3434,-0.369 0.2255,-0.3049 0.099,-0.243 -0.035,-0.1845 -0.1605,-0.1334 -0.2764,-0.091 -0.382,-0.056 -0.4773,-0.03 -0.5625,-0.013
h -0.6375 -0.7021
l -0.7578,-0.01 -0.8094,-0.021 -0.858,-0.036 -0.9037,-0.055 -0.9464,-0.078 -0.9861,-0.1048 -1.023,-0.1354 -1.0569,-0.1699 -1.0867,-0.2077 -1.1082,-0.2461 -1.1202,-0.2849 -1.1226,-0.3236 -1.1157,-0.3626 -1.0992,-0.4017 -1.0732,-0.441 -1.0378,-0.4805 -0.9949,-0.5201 -0.952,-0.5606 -0.9114,-0.602 -0.8729,-0.6444 -0.8366,-0.6877 -0.8023,-0.7318 -0.7702,-0.777 -0.7403,-0.823 -0.7116,-0.8704 -0.681,-0.9204 -0.6473,-0.9737 -0.6108,-1.0299 -0.5715,-1.0895 -0.5291,-1.152 -0.484,-1.2177 -0.436,-1.2865 -0.385,-1.3559 -0.332,-1.4164 -0.2766,-1.4652 -0.2191,-1.5026 -0.1594,-1.5283 -0.098,-1.5427 -0.033,-1.5453 0.033,-1.5366 0.099,-1.5166 0.159,-1.4872 0.2099,-1.4486 0.252,-1.4009 0.2852,-1.3441 0.3098,-1.278 0.3254,-1.203 0.3324,-1.1188 0.331,-1.023 0.3232,-0.9062 0.3096,-0.7658 0.2902,-0.6021 0.2648,-0.4149 0.2336,-0.2041 0.1965,0.03 0.1536,0.2878 0.1078,0.5582 0.071,0.7983 0.045,0.9974 0.031,1.1552 0.029,1.2722 0.038,1.348 0.059,1.3827 0.092,1.3765 0.1348,1.3362 0.1813,1.2907 0.2301,1.2473 0.2814,1.2057 0.3348,1.1662 0.3905,1.1286 0.4486,1.0929 0.5089,1.0591 0.5714,1.0268 0.6358,0.9929 0.7018,0.9571 0.7697,0.9192 0.8392,0.8792 0.9104,0.8372 0.9835,0.7931 1.0582,0.747 1.1309,0.698 1.1865,0.6432 1.2214,0.5815 1.2355,0.5133 1.2288,0.4382 1.2012,0.3564 1.153,0.268 1.0838,0.1728 0.9981,0.073 0.9131,-0.024 0.8329,-0.1168 0.7576,-0.2044 0.6871,-0.2874 0.6215,-0.3655 0.5608,-0.4389 0.5049,-0.5075 0.4531,-0.5724 0.4028,-0.6372 0.353,-0.7028 0.3038,-0.7693 0.2551,-0.8366 0.2072,-0.905 0.1597,-0.974 0.113,-1.044 0.068,-1.1149 0.028,-1.1861
v -1.258
l -0.03,-1.3302 -0.05,-1.4029 -0.062,-1.4762 -0.068,-1.5499 -0.067,-1.624 -0.059,-1.7043 -0.039,-1.8129 -0.01,-1.9557 0.036,-2.1324 0.093,-2.3431 0.1607,-2.588 0.2411,-2.8668 0.3337,-3.1796 0.4345,-3.5111 0.5283,-3.7988 0.6112,-4.0274 0.6833,-4.1969 0.7443,-4.3073 0.7947,-4.3585 0.834,-4.3505 0.8625,-4.2835 0.8867,-4.1713 0.9324,-4.0705 1.0063,-3.9949 1.1082,-3.9446 1.2383,-3.9196 1.3966,-3.92 1.583,-3.9457 1.7974,-3.9967 2.0299,-4.0615 2.2402,-4.0934 2.4182,-4.0811 2.5638,-4.0244 2.6771,-3.9236 2.758,-3.77826 2.8068,-3.58871 2.8231,-3.35484 2.8167,-3.08932 2.8259,-2.84291 2.8602,-2.62829 2.9198,-2.44546 3.0044,-2.2944 3.1142,-2.17513 3.2492,-2.08765 3.4094,-2.03196 3.5967,-2.00083 3.8188,-1.96543 4.0781,-1.91852 4.3741,-1.86012 4.7072,-1.79022 5.0771,-1.70883 5.484,-1.61593 5.9278,-1.51154 6.3989,-1.38458 6.8592,-1.19069 7.2988,-0.9188 7.718,-0.56891 8.1165,-0.14101 8.4946,0.36488 8.8521,0.94877 9.1891,1.61067 z"
       id="hair-onda-main"
       class="cor-cabelo" />
  </g>
  <g
     id="rosto-neutro"
     style="display:inline"
     class="rosto-neutro"
     transform="translate(-110.86157,-95.162232)">
    <path
       d="m 275.95212,414.61923 h 95.46"
       id="boca-neutro"
       class="traco-rosto" />
    <path
       d="m 235.95124,341.06754 a 34.722853,34.722853 0 0 0 2.8857,9.07257 22.708588,22.708588 0 0 0 5.71191,7.56588 13.666701,13.666701 0 0 0 8.73006,3.36908 13.640426,13.640426 0 0 0 8.72989,-3.36831 22.801754,22.801754 0 0 0 5.71341,-7.56533 34.611178,34.611178 0 0 0 2.88281,-9.07328 40.957875,40.957875 0 0 0 0.55209,-9.51302 38.929071,38.929071 0 0 0 -1.67901,-9.37751 28.987323,28.987323 0 0 0 -4.21515,-8.5217 17.322997,17.322997 0 0 0 -7.32465,-5.93798 12.364251,12.364251 0 0 0 -9.31709,2.5e-4 17.295599,17.295599 0 0 0 -7.32529,5.93659 29.029784,29.029784 0 0 0 -4.21494,8.52195 38.659409,38.659409 0 0 0 -1.67843,9.37733 41.262773,41.262773 0 0 0 0.54869,9.51348 z"
       id="olho-neutro-dir"
       class="cor-olho" />
    <path
       d="m 369.20722,341.06754 a 34.722853,34.722853 0 0 0 2.8857,9.07257 22.708588,22.708588 0 0 0 5.71191,7.56588 13.666701,13.666701 0 0 0 8.73006,3.36908 13.640426,13.640426 0 0 0 8.72989,-3.36831 22.801754,22.801754 0 0 0 5.71341,-7.56533 34.611178,34.611178 0 0 0 2.88281,-9.07328 40.957875,40.957875 0 0 0 0.55209,-9.51302 38.929071,38.929071 0 0 0 -1.67901,-9.37751 28.987323,28.987323 0 0 0 -4.21515,-8.5217 17.322997,17.322997 0 0 0 -7.32465,-5.93798 12.364251,12.364251 0 0 0 -9.31709,2.5e-4 17.295599,17.295599 0 0 0 -7.3253,5.93659 29.029784,29.029784 0 0 0 -4.21493,8.52195 38.659409,38.659409 0 0 0 -1.67843,9.37733 41.262773,41.262773 0 0 0 0.54869,9.51348 z"
       id="olho-neutro-esq"
       class="cor-olho" />
	  <path
       d="m 246.99334,342.62286
a 15.625284,15.625284 0 0 0 1.2985,4.0827 10.218865,10.218865 0 0 0 2.5704,3.4046 6.150015,6.150015 0 0 0 3.9285,1.5161 6.138192,6.138192 0 0 0 3.9285,-1.5157 10.26079,10.26079 0 0 0 2.571,-3.4044 15.57503,15.57503 0 0 0 1.29729,-4.083 18.431044,18.431044 0 0 0 0.2484,-4.2809 17.518082,17.518082 0 0 0 -0.7556,-4.2198 13.044295,13.044295 0 0 0 -1.8968,-3.8348 7.795349,7.795349 0 0 0 -3.2961,-2.6721 5.563913,5.563913 0 0 0 -4.19269,10e-5 7.783019,7.783019 0 0 0 -3.2963,2.6715 13.063403,13.063403 0 0 0 -1.8968,3.8349 17.396734,17.396734 0 0 0 -0.7553,4.2198 18.568248,18.568248 0 0 0 0.247,4.281
z"
       id="iris-neutro-esq"
       class="iris-fill" />
	<path
       d="m 392.82274,342.62286
a 15.625284,15.625284 0 0 1 -1.2986,4.0827 10.218865,10.218865 0 0 1 -2.5703,3.4046 6.150015,6.150015 0 0 1 -3.9286,1.5161 6.138192,6.138192 0 0 1 -3.9284,-1.5157 10.26079,10.26079 0 0 1 -2.571,-3.4044 15.57503,15.57503 0 0 1 -1.2973,-4.083 18.431044,18.431044 0 0 1 -0.2485,-4.2809 17.518082,17.518082 0 0 1 0.7556,-4.2198 13.044295,13.044295 0 0 1 1.8968,-3.8348 7.795349,7.795349 0 0 1 3.2961,-2.6721 5.563913,5.563913 0 0 1 4.1927,10e-5 7.783019,7.783019 0 0 1 3.29639,2.6715 13.063403,13.063403 0 0 1 1.89671,3.8349 17.396734,17.396734 0 0 1 0.7553,4.2198 18.568248,18.568248 0 0 1 -0.2469,4.281
z"
       id="iris-neutro-dir"
       class="iris-fill" />
  </g>
  <g
     id="rosto-nojo"
     style="display:inline"
     class="rosto-nojo"
     transform="translate(-110.86157,-95.162232)">
    <path
       d="m 207.43816,314.31037 a 88.112401,88.112401 0 0 0 61.64811,-35.5019"
       id="sobran-nojo-dir"
       class="traco-rosto" />
    <path
       d="m 273.75564,437.30399 a 29.325335,29.325335 0 0 0 -18.4032,-39.52657"
       id="boca-nojo-dir"
       class="traco-rosto" />
    <path
       d="M 357.89353,414.25761 A 65.820673,65.820673 0 0 0 273.3577,413.4418"
       id="boca-nojo-centro"
       class="traco-rosto" />
    <path
       d="m 366.01268,273.61783 a 114.48394,114.48394 0 0 0 56.87271,33.55579"
       id="sobran-nojo-esq"
       class="traco-rosto" />
    <path
       d="m 377.94671,394.25574 a 35.228541,35.228541 0 0 0 -21.51834,40.99482"
       id="boca-nojo-esq"
       class="traco-rosto" />
    <path
       d="m 232.59824,355.57064 a 25.094318,25.094318 0 0 0 5.78003,6.81695 20.632795,20.632795 0 0 0 7.91671,4.09836 19.40207,19.40207 0 0 0 8.90365,0.16397 18.665414,18.665414 0 0 0 7.98373,-3.93251 18.277138,18.277138 0 0 0 5.74729,-6.84669 28.444856,28.444856 0 0 0 3.25037,-8.33715 35.038146,35.038146 0 0 0 0.69985,-8.9335 28.131339,28.131339 0 0 0 -1.53613,-8.80414 8.199138,8.199138 0 0 0 -6.94024,-4.97474 28.533498,28.533498 0 0 0 -8.47184,2.78642 141.47912,141.47912 0 0 1 -8.56859,2.6997 57.123775,57.123775 0 0 0 -8.43734,3.06215 18.778788,18.778788 0 0 0 -7.02271,5.46709 7.590433,7.590433 0 0 0 -2.19669,8.29184 22.154306,22.154306 0 0 0 2.89191,8.44225"
       id="olho-nojo-dir"
       class="cor-olho" />
    <path
       d="m 394.28736,358.40803 a 24.724586,24.724586 0 0 0 5.78003,-6.81695 22.154306,22.154306 0 0 0 2.89191,-8.44225 7.594924,7.594924 0 0 0 -2.1967,-8.29184 18.778778,18.778778 0 0 0 -7.0227,-5.46708 53.612422,53.612422 0 0 0 -8.43734,-3.06216 141.47912,141.47912 0 0 1 -8.56859,-2.6997 28.790251,28.790251 0 0 0 -8.47185,-2.78641 8.199139,8.199139 0 0 0 -6.94023,4.97473 27.017649,27.017649 0 0 0 -1.53613,8.80415 35.113206,35.113206 0 0 0 0.69985,8.93349 28.444853,28.444853 0 0 0 3.25036,8.33715 25.553547,25.553547 0 0 0 5.7473,6.84669 16.041576,16.041576 0 0 0 7.98373,3.93251 19.38316,19.38316 0 0 0 8.90365,-0.16397 20.11913,20.11913 0 0 0 7.91671,-4.09836 z"
       id="olho-nojo-esq"
       class="cor-olho" />
	  <path
       d="m 251.99544,329.54136
a 7.783019,7.783019 0 0 0 -0.597,0.7458 13.063403,13.063403 0 0 0 -1.8968,3.8349 17.396734,17.396734 0 0 0 -0.7553,4.2198 18.568248,18.568248 0 0 0 0.247,4.281 15.625284,15.625284 0 0 0 1.2985,4.0827 10.218865,10.218865 0 0 0 2.5704,3.4046 6.150015,6.150015 0 0 0 3.9285,1.5161 6.138192,6.138192 0 0 0 3.9285,-1.5157 10.26079,10.26079 0 0 0 2.57101,-3.4044 15.57503,15.57503 0 0 0 1.2973,-4.083 18.431044,18.431044 0 0 0 0.24841,-4.2809 17.518082,17.518082 0 0 0 -0.75561,-4.2198 13.044295,13.044295 0 0 0 -1.8968,-3.8348 7.795349,7.795349 0 0 0 -3.2961,-2.6721 5.563913,5.563913 0 0 0 -0.57761,-0.1987 28.533498,28.533498 0 0 0 -0.3782,0.1908 141.47912,141.47912 0 0 1 -5.9362,1.9337
z"
       id="iris-nojo-esq"
       class="iris-fill" />
	<path
       d="m 382.82274,340.62286
a 15.625284,15.625284 0 0 1 -1.2986,4.0827 10.218865,10.218865 0 0 1 -2.5703,3.4046 6.150015,6.150015 0 0 1 -3.9286,1.5161 6.138192,6.138192 0 0 1 -3.9284,-1.5157 10.26079,10.26079 0 0 1 -2.571,-3.4044 15.57503,15.57503 0 0 1 -1.2973,-4.083 18.431044,18.431044 0 0 1 -0.2485,-4.2809 17.518082,17.518082 0 0 1 0.7556,-4.2198 13.044295,13.044295 0 0 1 1.8968,-3.8348 7.795349,7.795349 0 0 1 3.2961,-2.6721 5.563913,5.563913 0 0 1 4.1927,10e-5 7.783019,7.783019 0 0 1 3.2964,2.6715 13.063403,13.063403 0 0 1 1.8967,3.8349 17.396734,17.396734 0 0 1 0.7553,4.2198 18.568248,18.568248 0 0 1 -0.2469,4.281
z"
       id="iris-nojo-dir"
       class="iris-fill" />
  </g>
  <g
     id="rosto-feliz"
     style="display:inline"
     class="rosto-feliz"
     transform="translate(-110.86157,-95.162232)">
    <path
       d="m 264.61235,397.77742 a 63.900702,63.900702 0 0 0 118.13893,0"
       id="boca-feliz"
       class="traco-rosto" />
    <path
       d="m 235.95124,341.06754 a 34.722853,34.722853 0 0 0 2.8857,9.07257 22.708588,22.708588 0 0 0 5.71191,7.56588 13.666701,13.666701 0 0 0 8.73006,3.36908 13.640426,13.640426 0 0 0 8.72989,-3.36831 22.801754,22.801754 0 0 0 5.71341,-7.56533 34.611178,34.611178 0 0 0 2.88281,-9.07328 40.957875,40.957875 0 0 0 0.55209,-9.51302 38.929071,38.929071 0 0 0 -1.67901,-9.37751 28.987323,28.987323 0 0 0 -4.21515,-8.5217 17.322997,17.322997 0 0 0 -7.32465,-5.93798 12.364251,12.364251 0 0 0 -9.31709,2.5e-4 17.295599,17.295599 0 0 0 -7.32529,5.93659 29.029784,29.029784 0 0 0 -4.21494,8.52195 38.659409,38.659409 0 0 0 -1.67843,9.37733 41.262773,41.262773 0 0 0 0.54869,9.51348 z"
       id="olho-feliz-dir"
       class="cor-olho" />
    <path
       d="m 369.20722,341.06754 a 34.722853,34.722853 0 0 0 2.8857,9.07257 22.708588,22.708588 0 0 0 5.71191,7.56588 13.666701,13.666701 0 0 0 8.73006,3.36908 13.640426,13.640426 0 0 0 8.72989,-3.36831 22.801754,22.801754 0 0 0 5.71341,-7.56533 34.611178,34.611178 0 0 0 2.88281,-9.07328 40.957875,40.957875 0 0 0 0.55209,-9.51302 38.929071,38.929071 0 0 0 -1.67901,-9.37751 28.987323,28.987323 0 0 0 -4.21515,-8.5217 17.322997,17.322997 0 0 0 -7.32465,-5.93798 12.364251,12.364251 0 0 0 -9.31709,2.5e-4 17.295599,17.295599 0 0 0 -7.3253,5.93659 29.029784,29.029784 0 0 0 -4.21493,8.52195 38.659409,38.659409 0 0 0 -1.67843,9.37733 41.262773,41.262773 0 0 0 0.54869,9.51348 z"
       id="olho-feliz-esq"
       class="cor-olho" />
	  <path
       d="m 246.99334,342.62286
a 15.625284,15.625284 0 0 0 1.2985,4.0827 10.218865,10.218865 0 0 0 2.5704,3.4046 6.150015,6.150015 0 0 0 3.9285,1.5161 6.138192,6.138192 0 0 0 3.9285,-1.5157 10.26079,10.26079 0 0 0 2.571,-3.4044 15.57503,15.57503 0 0 0 1.29729,-4.083 18.431044,18.431044 0 0 0 0.2484,-4.2809 17.518082,17.518082 0 0 0 -0.7556,-4.2198 13.044295,13.044295 0 0 0 -1.8968,-3.8348 7.795349,7.795349 0 0 0 -3.2961,-2.6721 5.563913,5.563913 0 0 0 -4.19269,10e-5 7.783019,7.783019 0 0 0 -3.2963,2.6715 13.063403,13.063403 0 0 0 -1.8968,3.8349 17.396734,17.396734 0 0 0 -0.7553,4.2198 18.568248,18.568248 0 0 0 0.247,4.281
z"
       id="iris-feliz-esq"
       class="iris-fill" />
	<path
       d="m 392.82274,342.62286
a 15.625284,15.625284 0 0 1 -1.2986,4.0827 10.218865,10.218865 0 0 1 -2.5703,3.4046 6.150015,6.150015 0 0 1 -3.9286,1.5161 6.138192,6.138192 0 0 1 -3.9284,-1.5157 10.26079,10.26079 0 0 1 -2.571,-3.4044 15.57503,15.57503 0 0 1 -1.2973,-4.083 18.431044,18.431044 0 0 1 -0.2485,-4.2809 17.518082,17.518082 0 0 1 0.7556,-4.2198 13.044295,13.044295 0 0 1 1.8968,-3.8348 7.795349,7.795349 0 0 1 3.2961,-2.6721 5.563913,5.563913 0 0 1 4.1927,10e-5 7.783019,7.783019 0 0 1 3.29639,2.6715 13.063403,13.063403 0 0 1 1.89671,3.8349 17.396734,17.396734 0 0 1 0.7553,4.2198 18.568248,18.568248 0 0 1 -0.2469,4.281
z"
       id="iris-feliz-dir"
       class="iris-fill" />
  </g>
  <g
     id="rosto-triste"
     style="display:inline"
     class="rosto-triste"
     transform="translate(-110.86157,-95.162232)">
    <path
       d="m 382.75128,427.09671 a 63.900702,63.900702 0 0 0 -118.13893,0"
       id="boca-triste"
       class="traco-rosto" />
    <path
       d="m 235.95124,341.06754 a 34.722853,34.722853 0 0 0 2.8857,9.07257 22.708588,22.708588 0 0 0 5.71191,7.56588 13.666701,13.666701 0 0 0 8.73006,3.36908 13.640426,13.640426 0 0 0 8.72989,-3.36831 22.801754,22.801754 0 0 0 5.71341,-7.56533 34.611178,34.611178 0 0 0 2.88281,-9.07328 40.957875,40.957875 0 0 0 0.55209,-9.51302 38.929071,38.929071 0 0 0 -1.67901,-9.37751 28.987323,28.987323 0 0 0 -4.21515,-8.5217 17.322997,17.322997 0 0 0 -7.32465,-5.93798 12.364251,12.364251 0 0 0 -9.31709,2.5e-4 17.295599,17.295599 0 0 0 -7.32529,5.93659 29.029784,29.029784 0 0 0 -4.21494,8.52195 38.659409,38.659409 0 0 0 -1.67843,9.37733 41.262773,41.262773 0 0 0 0.54869,9.51348 z"
       id="olho-triste-dir"
       class="cor-olho" />
    <path
       d="m 369.20722,341.06754 a 34.722853,34.722853 0 0 0 2.8857,9.07257 22.708588,22.708588 0 0 0 5.71191,7.56588 13.666701,13.666701 0 0 0 8.73006,3.36908 13.640426,13.640426 0 0 0 8.72989,-3.36831 22.801754,22.801754 0 0 0 5.71341,-7.56533 34.611178,34.611178 0 0 0 2.88281,-9.07328 40.957875,40.957875 0 0 0 0.55209,-9.51302 38.929071,38.929071 0 0 0 -1.67901,-9.37751 28.987323,28.987323 0 0 0 -4.21515,-8.5217 17.322997,17.322997 0 0 0 -7.32465,-5.93798 12.364251,12.364251 0 0 0 -9.31709,2.5e-4 17.295599,17.295599 0 0 0 -7.3253,5.93659 29.029784,29.029784 0 0 0 -4.21493,8.52195 38.659409,38.659409 0 0 0 -1.67843,9.37733 41.262773,41.262773 0 0 0 0.54869,9.51348 z"
       id="olho-triste-esq"
       class="cor-olho" />
	  	<path
       d="m 246.99334,342.62286
a 15.625284,15.625284 0 0 0 1.2985,4.0827 10.218865,10.218865 0 0 0 2.5704,3.4046 6.150015,6.150015 0 0 0 3.9285,1.5161 6.138192,6.138192 0 0 0 3.9285,-1.5157 10.26079,10.26079 0 0 0 2.571,-3.4044 15.57503,15.57503 0 0 0 1.29729,-4.083 18.431044,18.431044 0 0 0 0.2484,-4.2809 17.518082,17.518082 0 0 0 -0.7556,-4.2198 13.044295,13.044295 0 0 0 -1.8968,-3.8348 7.795349,7.795349 0 0 0 -3.2961,-2.6721 5.563913,5.563913 0 0 0 -4.19269,10e-5 7.783019,7.783019 0 0 0 -3.2963,2.6715 13.063403,13.063403 0 0 0 -1.8968,3.8349 17.396734,17.396734 0 0 0 -0.7553,4.2198 18.568248,18.568248 0 0 0 0.247,4.281
z"
       id="iris-triste-esq"
       class="iris-fill" />
	<path
       d="m 392.82274,342.62286
a 15.625284,15.625284 0 0 1 -1.2986,4.0827 10.218865,10.218865 0 0 1 -2.5703,3.4046 6.150015,6.150015 0 0 1 -3.9286,1.5161 6.138192,6.138192 0 0 1 -3.9284,-1.5157 10.26079,10.26079 0 0 1 -2.571,-3.4044 15.57503,15.57503 0 0 1 -1.2973,-4.083 18.431044,18.431044 0 0 1 -0.2485,-4.2809 17.518082,17.518082 0 0 1 0.7556,-4.2198 13.044295,13.044295 0 0 1 1.8968,-3.8348 7.795349,7.795349 0 0 1 3.2961,-2.6721 5.563913,5.563913 0 0 1 4.1927,10e-5 7.783019,7.783019 0 0 1 3.29639,2.6715 13.063403,13.063403 0 0 1 1.89671,3.8349 17.396734,17.396734 0 0 1 0.7553,4.2198 18.568248,18.568248 0 0 1 -0.2469,4.281
z"
       id="iris-triste-dir"
       class="iris-fill" />
  </g>
  <g
     id="rosto-medo"
     style="display:inline"
     class="rosto-medo"
     transform="translate(-110.86157,-95.162232)">
    <path
       d="m 207.43816,314.31037 a 309.5886,309.5886 0 0 0 61.64811,-35.5019"
       id="sobran-medo-dir"
       class="traco-rosto" />
    <path
       d="m 366.01268,273.61783 a 522.65159,522.65159 0 0 0 56.87271,33.55579"
       id="sobran-medo-esq"
       class="traco-rosto" />
    <path
       d="m 235.95124,341.06754 a 34.722853,34.722853 0 0 0 2.8857,9.07257 22.708588,22.708588 0 0 0 5.71191,7.56588 13.666701,13.666701 0 0 0 8.73006,3.36908 13.640426,13.640426 0 0 0 8.72989,-3.36831 22.801754,22.801754 0 0 0 5.71341,-7.56533 34.611178,34.611178 0 0 0 2.88281,-9.07328 40.957875,40.957875 0 0 0 0.55209,-9.51302 38.929071,38.929071 0 0 0 -1.67901,-9.37751 28.987323,28.987323 0 0 0 -4.21515,-8.5217 17.322997,17.322997 0 0 0 -7.32465,-5.93798 12.364251,12.364251 0 0 0 -9.31709,2.5e-4 17.295599,17.295599 0 0 0 -7.32529,5.93659 29.029784,29.029784 0 0 0 -4.21494,8.52195 38.659409,38.659409 0 0 0 -1.67843,9.37733 41.262773,41.262773 0 0 0 0.54869,9.51348 z"
       id="olho-medo-dir"
       class="cor-olho" />
    <path
       d="m 369.20722,341.06754 a 34.722853,34.722853 0 0 0 2.8857,9.07257 22.708588,22.708588 0 0 0 5.71191,7.56588 13.666701,13.666701 0 0 0 8.73006,3.36908 13.640426,13.640426 0 0 0 8.72989,-3.36831 22.801754,22.801754 0 0 0 5.71341,-7.56533 34.611178,34.611178 0 0 0 2.88281,-9.07328 40.957875,40.957875 0 0 0 0.55209,-9.51302 38.929071,38.929071 0 0 0 -1.67901,-9.37751 28.987323,28.987323 0 0 0 -4.21515,-8.5217 17.322997,17.322997 0 0 0 -7.32465,-5.93798 12.364251,12.364251 0 0 0 -9.31709,2.5e-4 17.295599,17.295599 0 0 0 -7.3253,5.93659 29.029784,29.029784 0 0 0 -4.21493,8.52195 38.659409,38.659409 0 0 0 -1.67843,9.37733 41.262773,41.262773 0 0 0 0.54869,9.51348 z"
       id="olho-medo-esq"
       class="cor-olho" />
    <path
       d="m 315.80802,389.85093 a 44.264667,44.264667 0 0 1 43.84324,31.73876 11.45223,11.45223 0 0 1 -17.46956,11.63533 27.172054,27.172054 0 0 1 -6.3626,-3.53511 40.459187,40.459187 0 0 0 -20.01108,-5.22992 40.459187,40.459187 0 0 0 -20.01108,5.22992 27.172054,27.172054 0 0 1 -6.3626,3.53511 11.45223,11.45223 0 0 1 -17.46956,-11.63533 44.264667,44.264667 0 0 1 43.84324,-31.73876 z"
       id="boca-medo"
       class="traco-rosto boca-aberta" />
	  	<path
       d="m 246.99334,342.62286
a 15.625284,15.625284 0 0 0 1.2985,4.0827 10.218865,10.218865 0 0 0 2.5704,3.4046 6.150015,6.150015 0 0 0 3.9285,1.5161 6.138192,6.138192 0 0 0 3.9285,-1.5157 10.26079,10.26079 0 0 0 2.571,-3.4044 15.57503,15.57503 0 0 0 1.29729,-4.083 18.431044,18.431044 0 0 0 0.2484,-4.2809 17.518082,17.518082 0 0 0 -0.7556,-4.2198 13.044295,13.044295 0 0 0 -1.8968,-3.8348 7.795349,7.795349 0 0 0 -3.2961,-2.6721 5.563913,5.563913 0 0 0 -4.19269,10e-5 7.783019,7.783019 0 0 0 -3.2963,2.6715 13.063403,13.063403 0 0 0 -1.8968,3.8349 17.396734,17.396734 0 0 0 -0.7553,4.2198 18.568248,18.568248 0 0 0 0.247,4.281
z"
       id="iris-medo-esq"
       class="iris-fill" />
	<path
       d="m 392.82274,342.62286
a 15.625284,15.625284 0 0 1 -1.2986,4.0827 10.218865,10.218865 0 0 1 -2.5703,3.4046 6.150015,6.150015 0 0 1 -3.9286,1.5161 6.138192,6.138192 0 0 1 -3.9284,-1.5157 10.26079,10.26079 0 0 1 -2.571,-3.4044 15.57503,15.57503 0 0 1 -1.2973,-4.083 18.431044,18.431044 0 0 1 -0.2485,-4.2809 17.518082,17.518082 0 0 1 0.7556,-4.2198 13.044295,13.044295 0 0 1 1.8968,-3.8348 7.795349,7.795349 0 0 1 3.2961,-2.6721 5.563913,5.563913 0 0 1 4.1927,10e-5 7.783019,7.783019 0 0 1 3.29639,2.6715 13.063403,13.063403 0 0 1 1.89671,3.8349 17.396734,17.396734 0 0 1 0.7553,4.2198 18.568248,18.568248 0 0 1 -0.2469,4.281
z"
       id="iris-medo-dir"
       class="iris-fill" />
  </g>
  <g
     id="rosto-birra"
     style="display:inline"
     class="rosto-birra"
     transform="translate(-110.86157,-95.162232)">
    <path
       d="m 229.34212,307.19923 55.6,23.11"
       id="sobran-birra-dir"
       class="traco-rosto" />
    <path
       d="m 348.48212,330.20923 55.76,-22.66"
       id="sobran-birra-esq"
       class="traco-rosto" />
    <path
       d="m 283.02273,351.7769 a 50.317903,50.317903 0 0 0 -59.15154,-6.96413"
       id="olho-birra-dir"
       class="traco-rosto" />
    <path
       d="m 407.81895,343.378 a 48.298855,48.298855 0 0 0 -56.07487,8.80496"
       id="olho-birra-esq"
       class="traco-rosto" />
    <path
       d="m 315.80802,389.85093 a 44.264667,44.264667 0 0 1 43.84324,31.73876 11.45223,11.45223 0 0 1 -17.46956,11.63533 27.172054,27.172054 0 0 1 -6.3626,-3.53511 40.459187,40.459187 0 0 0 -20.01108,-5.22992 40.459187,40.459187 0 0 0 -20.01108,5.22992 27.172054,27.172054 0 0 1 -6.3626,3.53511 11.45223,11.45223 0 0 1 -17.46956,-11.63533 44.264667,44.264667 0 0 1 43.84324,-31.73876 z"
       id="boca-birra"
       class="traco-rosto boca-aberta" />
  </g>
  <g
     id="rosto-raiva"
     class="rosto-raiva"
     style="display:inline"
     transform="translate(-110.86157,-95.162232)">
    <path
       d="m 382.75128,427.09671 a 63.900702,63.900702 0 0 0 -118.13893,0"
       id="boca-raiva"
       class="traco-rosto" />
    <path
       d="m 242.18376,312.53299 a 29.666522,29.666522 0 0 0 -5.871,12.49021 41.268868,41.268868 0 0 0 -0.68754,13.84719 34.42924,34.42924 0 0 0 4.22974,13.17246 17.635745,17.635745 0 0 0 10.44242,8.66059 11.995116,11.995116 0 0 0 12.72847,-3.9109 27.050827,27.050827 0 0 0 6.72932,-12.01944 40.343206,40.343206 0 0 0 1.36465,-13.79401 47.852883,47.852883 0 0 0 -1.0943,-6.86973 z"
       id="olho-raiva-dir"
       class="cor-olho" />
    <path
       d="m 370.60381,321.21931 a 40.452117,40.452117 0 0 0 -1.07849,21.65463 23.755571,23.755571 0 0 0 12.22725,17.26042 14.822706,14.822706 0 0 0 18.23523,-8.2247 37.470249,37.470249 0 0 0 4.31774,-21.20126 30.932793,30.932793 0 0 0 -8.28409,-19.82091 z"
       id="olho-raiva-esq"
       class="cor-olho" />
    <path
       d="m 215.03212,301.23923 69.91,29.07"
       id="sobran-raiva-dir"
       class="traco-rosto" />
    <path
       d="m 348.48212,330.20923 73.43,-29.85"
       id="sobran-raiva-esq"
       class="traco-rosto" />
	<path
       d="m 246.99334,342.62286
a 15.625284,15.625284 0 0 0 1.2985,4.0827 10.218865,10.218865 0 0 0 2.5704,3.4046 6.150015,6.150015 0 0 0 3.9285,1.5161 6.138192,6.138192 0 0 0 3.9285,-1.5157 10.26079,10.26079 0 0 0 2.571,-3.4044 15.57503,15.57503 0 0 0 1.29729,-4.083 18.431044,18.431044 0 0 0 0.2484,-4.2809 17.518082,17.518082 0 0 0 -0.7556,-4.2198 13.044295,13.044295 0 0 0 -1.8968,-3.8348 7.795349,7.795349 0 0 0 -3.2961,-2.6721 5.563913,5.563913 0 0 0 -4.19269,10e-5 7.783019,7.783019 0 0 0 -3.2963,2.6715 13.063403,13.063403 0 0 0 -1.8968,3.8349 17.396734,17.396734 0 0 0 -0.7553,4.2198 18.568248,18.568248 0 0 0 0.247,4.281
z"
       id="iris-raiva-esq"
       class="iris-fill" />
	<path
       d="m 392.82274,342.62286
a 15.625284,15.625284 0 0 1 -1.2986,4.0827 10.218865,10.218865 0 0 1 -2.5703,3.4046 6.150015,6.150015 0 0 1 -3.9286,1.5161 6.138192,6.138192 0 0 1 -3.9284,-1.5157 10.26079,10.26079 0 0 1 -2.571,-3.4044 15.57503,15.57503 0 0 1 -1.2973,-4.083 18.431044,18.431044 0 0 1 -0.2485,-4.2809 17.518082,17.518082 0 0 1 0.7556,-4.2198 13.044295,13.044295 0 0 1 1.8968,-3.8348 7.795349,7.795349 0 0 1 3.2961,-2.6721 5.563913,5.563913 0 0 1 4.1927,10e-5 7.783019,7.783019 0 0 1 3.29639,2.6715 13.063403,13.063403 0 0 1 1.89671,3.8349 17.396734,17.396734 0 0 1 0.7553,4.2198 18.568248,18.568248 0 0 1 -0.2469,4.281
z"
       id="iris-raiva-dir"
       class="iris-fill" />
  </g>
</g> 
</svg>